<svg id="Layer_1" enable-background="new 0 0 512 512" height="512" viewBox="0 0 512 512" width="512" xmlns="http://www.w3.org/2000/svg"><g><ellipse cx="253.2" cy="447.1" fill="#00b9f2" rx="232.1" ry="64.9"/></g><g><g><g><path d="m223.5 428.3s-95.7 4.6-152.6 4.6-65-72.7-24.5-87.7c44.2-7.1 143.5 40.3 177.1 83.1z" fill="#fff"/><path d="m70.9 435c-32.2 0-47.7-22.2-51.1-41.2-4.1-22.7 6.6-43.5 25.9-50.6.2-.1.2-.1.4-.1 21-3.4 56 5.2 93.7 23 37.4 17.6 69.3 40.4 85.3 60.9.5.6.6 1.5.2 2.2-.3.7-1 1.2-1.8 1.3-.9-.1-96.3 4.5-152.6 4.5zm-23.8-87.7c-20 7.5-26 29-23 45.8 3.1 17.4 17.2 37.7 46.9 37.7 49.4 0 129.1-3.5 148.3-4.4-16.4-19.1-46.3-40-81.2-56.4-36.9-17.4-70.8-25.9-91-22.7z" fill="#0066b3"/></g><path d="m205.7 414.3s-100.1 6.9-135.1 1.4c-18.2-2.8-52-21.8-33.2-63.6l3.8-2.4s10.1 20.5 37.3 32.6c16.4 6.5 92 5.3 92 5.3s34.2 24.2 35.2 26.7z" fill="#fff200"/></g><g><g><path d="m185.2 87.1s-59.5-35.5-36.1-56.1c23.4-20.5 43.9 28 43.9 28s0-55.7 36.1-54.9c36.1.7 13.5 61.2-9.5 83-21.6 0-34.4 0-34.4 0z" fill="#fff200"/><path d="m219.6 91.2h-34.4c-.7 0-1.5-.2-2.1-.5-4.2-2.5-41.5-25.4-43.4-46.7-.5-6 1.8-11.6 6.7-16 5.9-5.2 12.3-7.1 18.9-5.6 10.6 2.4 19.3 13.5 24.8 22.5 1.7-11.1 5.8-26.1 15.5-35.7 6.3-6.3 14.2-9.3 23.5-9.2 13.2.2 18.6 7.4 21 13.5 8.3 21.4-10.9 60.7-27.8 76.6-.7.7-1.6 1.1-2.7 1.1zm-33.2-8.1h31.5c7.6-7.7 15.3-20 20.4-32.6 5.6-14.1 7.2-26.5 4.2-34-2.1-5.5-6.5-8.2-13.5-8.4s-12.8 2.1-17.6 6.8c-14.2 13.9-14.4 43.8-14.4 44.1 0 2-1.4 3.6-3.3 4s-3.8-.6-4.5-2.4c-3.2-7.5-14-27.6-25.8-30.3-4-.9-7.8.3-11.7 3.8-3.1 2.7-4.3 5.6-4 9.1.6 6.9 7.7 16.4 20 26.5 8.1 6.5 16 11.6 18.7 13.4z" fill="#0066b3"/></g><g><path d="m118.8 399.9 30.3.5h111.8l30.5-.5c59.3-2.3 92.4-38.2 92.4-96.5 0-34.2-5.9-105.4-12.6-127.4-23.6-78.5-95.2-84.7-95.2-84.7s-26-4.3-71.3-4.3c-49.1 0-71.3 4.3-71.3 4.3s-74.3 6.2-95.1 84.7c-5.9 22.3-12.6 93.3-12.6 127.5 0 58.3 33.2 94.1 92.4 96.5" fill="#0089cf"/><path d="m149 404.5-30.3-.5h-.1c-.2 0-.4 0-.5 0-30-1.2-54.6-11.1-71.2-28.6-16.4-17.3-25.1-42.2-25.1-72 0-33.2 6.6-105.3 12.7-128.5 11.1-42 37.3-63.6 57.4-74.3 20.7-11 38.8-13.2 41.1-13.3 2.5-.5 24.9-4.3 71.9-4.3 43.8 0 69.4 3.9 71.9 4.3 2 .2 19.6 2.2 40.2 13.4 19.6 10.7 45.8 32.2 58.3 74.1 6.9 23.1 12.8 95.5 12.8 128.6 0 29.8-8.7 54.7-25.1 72-16.6 17.5-41.2 27.3-71.2 28.6h-.1l-30.5.5c-9.8 0-102.7 0-112.2 0zm-30.2-8.7 30.3.5h111.7l30.4-.5c28.2-1.2 50.3-9.9 65.6-26 15.2-16 22.9-38.4 22.9-66.4 0-35.5-6.3-105.7-12.4-126.3-9.4-31.5-27.7-54.8-54.4-69.3-19.8-10.9-36.9-12.4-37.1-12.4-.1 0-.2 0-.3-.1-.2-.1-26.3-4.2-70.7-4.2-48 0-70.3 4.2-70.5 4.2s-.3.1-.5.1-18.2 1.6-38.4 12.6c-26.9 14.5-44.7 37.7-53 69-5.6 21.1-12.4 90.8-12.4 126.4 0 28.1 7.7 50.4 22.9 66.4 15.3 16.1 37.3 24.9 65.6 26z" fill="#6dcff6"/></g><path d="m205 372.3h88s72-30.7 75.5-42-19.2-12.1-34.1-2.3c-25.4 16.9-69.1 16.9-129.4 16.9s-103.9 0-129.4-16.9c-15-9.9-37.6-9.2-34.1 2.3 3.4 11.3 36 42 75.5 42s68.7 0 88 0z" fill="#0066b3"/><path d="m205 97.6c-113.3 0-128.7 33-131.4 43.7-2.8 10.6 15.4 11.4 27.4 2.1 20.5-15.9 55.6-23.4 104-23.4s83.5 7.6 104 23.4c12 9.3 30.2 8.6 27.4-2.1-2.7-10.7-18-43.7-131.4-43.7z" fill="#00b9f2"/><g><ellipse cx="204.7" cy="215.7" fill="#fff" rx="127.7" ry="86.6"/><path d="m204.7 306.1c-58.2 0-94.1-8.4-113-26.4-17.1-16.4-18.5-37.7-18.5-64 0-26.4 10.9-48.6 31.4-64.2 22.8-17.3 56.4-26.1 100-26.1s77.3 8.8 100 26.1c20.5 15.6 31.4 37.8 31.4 64.2 0 26.2-1.3 47.6-18.5 64-18.7 18-54.6 26.4-112.8 26.4zm0-173.3c-42 0-74 8.3-95.5 24.6-18.6 14.2-28.4 34.3-28.4 58.2 0 24.4 1.2 44.2 16.1 58.5 17.4 16.6 51.6 24.3 107.8 24.3s90.4-7.7 107.8-24.3c15-14.2 16.1-34.1 16.1-58.5 0-24-9.8-44.1-28.4-58.2-21.4-16.3-53.6-24.6-95.5-24.6z" fill="#6dcff6"/></g><g><path d="m220.2 331.5c0 6-4.9 10.9-10.9 10.9s-10.9-4.9-10.9-10.9 4.9-10.9 10.9-10.9 10.9 4.9 10.9 10.9z" fill="#fff200"/><path d="m209.3 344.9c-7.4 0-13.4-6-13.4-13.4s6-13.4 13.4-13.4 13.4 6 13.4 13.4-6 13.4-13.4 13.4zm0-21.8c-4.6 0-8.5 3.8-8.5 8.5 0 4.6 3.8 8.5 8.5 8.5s8.5-3.8 8.5-8.5c-.1-4.7-3.9-8.5-8.5-8.5z" fill="#6dcff6"/></g><g><path d="m220.2 370.5c0 6-4.9 10.9-10.9 10.9s-10.9-4.9-10.9-10.9 4.9-10.9 10.9-10.9 10.9 4.8 10.9 10.9z" fill="#fff200"/><path d="m209.3 383.9c-7.4 0-13.4-6-13.4-13.4s6-13.4 13.4-13.4 13.4 6 13.4 13.4c0 7.3-6 13.4-13.4 13.4zm0-21.9c-4.6 0-8.5 3.8-8.5 8.5 0 4.6 3.8 8.5 8.5 8.5s8.5-3.8 8.5-8.5c-.1-4.6-3.9-8.5-8.5-8.5z" fill="#6dcff6"/></g><path d="m125.8 114.8c-1.3 0-2.3-.8-2.7-2-.5-1.5.4-3.1 2-3.5.6-.2 63.6-18.1 159.4-.1 1.6.3 2.6 1.8 2.3 3.3-.3 1.6-1.8 2.6-3.3 2.3-94.5-17.8-156.2-.2-156.9-.1-.2 0-.6.1-.8.1z" fill="#fff"/><path d="m209.3 292c-21.3 0-46.9-1.6-76.2-6.4-2.2-.4-3.8-2.5-3.4-4.7s2.5-3.8 4.7-3.4c84.3 13.9 139.9.2 140.4.1 2.2-.5 4.4.8 4.9 3s-.8 4.4-3 4.9c-1.3.4-26 6.5-67.4 6.5z" fill="#6dcff6"/><g><path d="m205.3 230c-.1 0-.2 0-.3 0-24.1-.2-25.4-22.1-25.4-26.5 0-1.2.9-2 2-2s2 .9 2 2c0 5.2 1.6 22.2 21.3 22.4 6.4 0 11.5-1.7 15-5.2 5.7-5.7 6.2-14.6 6.2-17.1 0-1.2.9-2 2-2s2 .9 2 2c0 3.8-.7 13.4-7.4 20-4 4.2-9.9 6.4-17.4 6.4z"/></g><g><path d="m92.6 396.5s27.9-11.7 38.1 14.7c4 11.1 23.6 5.4 21.1-8.9-1.7-9.5-16.6-33.3-36.5-31.3l-4.1.4" fill="#0089cf"/><path d="m139.4 421.2c-5.7 0-10.5-3.1-12.4-8.5-2.5-6.4-6.3-10.7-11.5-12.9-9.7-4.1-21.1.5-21.2.5-2.1.9-4.5-.2-5.3-2.2-.9-2.1.1-4.5 2.2-5.3.6-.2 14.6-6 27.6-.5 7.3 3.1 12.7 9 16 17.5 0 0 0 .1.1.1 1.5 4.1 6.1 3.1 7 2.8 2.8-.8 7.3-3.6 6.2-9.6-1.4-7.8-14.6-29.7-32-27.9l-4.1.4c-2.3.2-4.2-1.5-4.5-3.8-.2-2.3 1.5-4.2 3.8-4.5l4.1-.4c22.3-2.2 38.7 23.2 40.9 34.7 1.8 9.9-4.7 17.1-12.1 19-2 .4-3.4.6-4.8.6z" fill="#6dcff6"/></g><g><path d="m301.5 392.9c5.6-.1 12.4 3.1 17.6 16.4 4 11.1 23.6 5.4 21.1-8.9-1.7-9.5-16.6-33.3-36.5-31.3" fill="#0089cf"/><path d="m327.8 419.2c-5.7 0-10.5-3.1-12.4-8.5-3.6-9.2-8.2-13.9-13.7-13.7h-.1c-2.2 0-4.1-1.8-4.1-4 0-2.3 1.8-4.1 4-4.1 6.4-.2 15.3 3.1 21.4 18.9 0 0 0 .1.1.1 1.5 4.1 6.1 3.1 7 2.8 2.8-.8 7.3-3.6 6.2-9.6-.7-4.1-4.6-11.7-10.4-17.8-4.8-5.1-12.4-11-21.6-10.1-2.3.2-4.2-1.4-4.5-3.7-.2-2.3 1.4-4.2 3.7-4.5 22.4-2.2 38.8 23.2 40.9 34.7 1.8 9.9-4.7 17.1-12.1 19-1.5.3-3 .5-4.4.5z" fill="#6dcff6"/></g><g><path d="m275.7 212.9s-24.1-5.2-22.7-12.6c1.4-7.3 14.4-11.3 26.6-8.3 5.6 1.7 5.2 6.7-2.3 6.6s-14.6 1.6-10.2 3.4c8.1 3.2 18.7 10.8 8.6 10.9z"/><path d="m132.9 212.9s24.1-5.2 22.7-12.6c-1.4-7.3-14.4-11.3-26.6-8.3-5.6 1.7-5.2 6.7 2.3 6.6s14.6 1.6 10.2 3.4c-8.3 3.2-18.7 10.8-8.6 10.9z"/></g></g><g><g fill="none" stroke-linecap="round" stroke-linejoin="round" stroke-miterlimit="10"><path d="" stroke="#214ba0" stroke-width="5.153"/><path d="" stroke="#214ba0" stroke-width="5.153"/><path d="" stroke="#000" stroke-width="7.082"/></g><path d="m220.9 387.2c-2 0-3.5-1.6-3.5-3.5 0-2 1.6-3.5 3.5-3.5h96.7c2 0 3.5 1.6 3.5 3.5 0 2-1.6 3.5-3.5 3.5-8.2 0-88.6 0-96.7 0z"/><g><path d="m176.9 380.9s15.2-11.7 24 11.6c3.4 9.8 20.7 4.9 18.6-7.7-1.4-8.3-14.2-29.4-31.7-27.9" fill="#ffd42a"/><path d="m208.5 401.2c-5.1 0-9.3-2.8-11-7.5-2.5-6.7-5.9-10.8-9.6-11.9-4.5-1.3-8.8 1.9-8.9 1.9-1.6 1.2-3.8.9-4.9-.7-1.2-1.6-.9-3.8.6-4.9.3-.2 7.1-5.4 15.1-3.1 6.1 1.7 11 7.2 14.4 16.3v.1c1.3 3.6 5.4 2.7 6.2 2.6 2.5-.6 6.4-3.1 5.6-8.5-.6-3.6-4-10.3-9-15.8-4.1-4.5-10.8-9.8-18.9-9.1-2 .2-3.7-1.3-3.8-3.2-.2-2 1.3-3.7 3.2-3.8 19.6-1.7 33.8 20.7 35.5 30.8 1.5 8.7-4.3 14.9-10.7 16.5-1.3.1-2.6.3-3.8.3z"/></g><path d="" style="fill:none;stroke:#000;stroke-width:1.416;stroke-linecap:round;stroke-linejoin:round;stroke-miterlimit:10"/><path d="m187.8 363.7c.4-2.5 13.2-1.2 21.2 13.9.9 1.6-1.1 4.5-3.6.8-3.4-5-4.9-7.9-11-11.3-5.7-3.4-6.8-1.5-6.6-3.4z" fill="#fff"/><g><g><path d="m471.9 407.4v43.8c0 13.1-29 10.6-29 0s0-33.3 0-33.3z" fill="#fff200"/><path d="m458.5 464.2c-9.5 0-19.6-4.5-19.6-13v-33.3c0-1.7 1.1-3.3 2.7-3.8l29-10.5c1.3-.5 2.7-.2 3.8.5 1.1.8 1.7 2 1.7 3.4v43.8c-.2 7.7-7.1 12.9-17.6 12.9zm-11.5-43.4v30.4c0 2.2 5.1 4.9 11.5 4.9 7.3 0 9.2-3.1 9.2-4.9v-38z" fill="#0066b3"/></g><g fill="#fff"><path d="m452.1 451.9c.3 3.1 11.3 3.1 11.6-.2s-12-3.4-11.6.2z"/><path d="m452.1 439.5c.3 3.1 11.3 3.1 11.6-.2.3-3.4-12-3.4-11.6.2z"/><path d="m452.3 427.9c.3 3.1 11.3 3.1 11.6-.2.3-3.4-12-3.4-11.6.2z"/><path d="m452.1 417.8c.3 3.1 11.3 3.1 11.6-.2.3-3.4-12-3.4-11.6.2z"/></g><g><path d="m299 443.7v42.3c0 13.1-29 10.6-29 0s0-47.2 0-47.2 16.5 5.1 29 4.9z" fill="#fff200"/><path d="m285.7 499c-4.5 0-9.1-1-12.5-2.8-4.6-2.4-7.1-6-7.1-10.2v-47.2c0-1.3.6-2.5 1.6-3.3s2.4-1 3.6-.6c.2.1 16 4.9 27.6 4.7 1.1 0 2.2.4 3 1.2s1.3 1.8 1.3 2.9v42.3c-.1 7.8-7.1 13-17.5 13zm-11.5-54.9v41.8c0 2.2 5.1 4.9 11.5 4.9 3.4 0 9.2-1 9.2-4.9v-38.4c-7.5-.3-15.6-2-20.7-3.4z" fill="#0066b3"/></g><g><path d="m192.5 413.4v30.9s-29 10.6-29 0 0-45.5 0-45.5z" fill="#fff200"/><path d="m179.2 457.4c-4.5 0-9.1-1-12.5-2.8-4.6-2.4-7.1-6-7.1-10.2v-45.4c0-1.4.7-2.7 2-3.4 1.2-.8 2.7-.8 4-.2l29 14.5c1.4.7 2.3 2.1 2.3 3.7v30.9c-.3 7.7-7.3 12.9-17.7 12.9zm-11.5-51.8v38.8c0 2.2 5.1 4.9 11.5 4.9 7.3 0 9.2-3.1 9.2-4.9v-28.4z" fill="#0066b3"/></g><g><path d="m483.4 368.6s16.2 21.5-8.2 36.9c-20.3 12.8-122.2 38-172.1 38s-100.4-24.4-140.3-44.5c-18.2-9.2-20.3-20.1-18.2-38 0 0 186.9-14.6 187.9-13.1.9 1.6 126.2-5.1 150.9 20.7z" fill="#fff"/><path d="m303 447.9c-48.8 0-97-22.2-142.1-45.1-20.1-10.2-22.8-23.2-20.6-42.2.2-2 1.9-3.6 3.9-3.8.5 0 47.3-3.7 93.6-7.1 27.2-2 48.9-3.5 64.6-4.5 9.3-.6 16.5-1 21.4-1.3 5.6-.2 8.3-.4 9.9.1 1.6.1 6.6.1 11.7.1 55.7-.2 122.1 2.1 140.9 21.7.1.2.2.2.3.4.3.5 8 10.7 5.7 23.1-1.4 7.9-6.5 14.6-15 20-10.3 6.5-40.2 16-76.2 24.4-39.4 8.9-75.1 14.2-98.1 14.2zm-154.6-82.8c-1.3 14.6 1.4 22.7 16.3 30.2 44.2 22.3 91.3 44.1 138.3 44.1 49.8 0 150.3-25 169.9-37.4 6.4-4.1 10.2-8.9 11.3-14.3 1.5-7.9-3.1-15.1-4-16.3-19-19.2-105.9-18.9-134.5-18.9-4.1 0-7.3 0-9.6 0-2 0-3.4-.1-4.6-.4-9.1-.3-112.5 7.4-183.1 13z" fill="#0066b3"/></g><g><path d="m466.9 360s35.9 8.5 8.3 27.7c-19.6 13.7-122.2 38-172.1 38s-102.2-21.9-140.5-44.9-8.5-27.6 3-27.6h14.7l143.1-3.5 42.4 5.1c-.1.1 67.8-3.7 101.1 5.2z" fill="#fff200"/><path d="m303 429.9c-58.2 0-114.4-28.5-142.6-45.5-16-9.6-22.5-17.4-20.6-24.5 2.8-10.2 21.8-10.6 25.6-10.6h14.6l143.1-3.5h.6l42.1 5.1c5.9-.3 69.4-3.5 101.9 5.2 2.3.5 19.6 5 21.6 15.9 1.2 6.3-2.8 12.8-12 19.2-11.7 8.2-47 18.2-76.2 24.8-38.3 8.6-75.1 13.9-98.1 13.9zm-137.5-72.5c-9.2 0-17.1 2.5-17.8 4.7 0 .1-1 4.5 16.9 15.3 64.1 38.6 114.2 44.3 138.4 44.3 22.5 0 58.5-5.2 96.5-13.8 35.6-8.1 64.3-17.3 73.3-23.6 6-4.2 9.2-8.1 8.6-10.9-.8-4.1-9.7-8.1-15.6-9.5 0 0-.1 0-.2 0-32.2-8.6-99.1-4.9-99.8-4.9-.2 0-.5 0-.7 0l-42.1-5.1-142.8 3.4h-.1-14.6z" fill="#0066b3"/></g><g><path d="m284.1 353.3s-104.2 10.8-98 21.7c2.3 6.1 78.8 34.4 90.6 34.4s152.2-23.8 160.2-29.9c8.1-6.1 37.6-90 39.5-98.5s1.9-16.5-8.5-15.6-152.5 20.3-152.5 20.3c-7.6.9-8.9 10.3-16.5 30.7-3.2 8.6-9 23-14.8 36.9z" fill="#fff"/><path d="m276.7 411.6c-6.6 0-29.7-7.6-49.6-15-11-4.1-21.1-8.2-28.4-11.6-12.9-5.9-14.1-7.9-14.6-9-.6-1.2-.6-2.5 0-3.7 1-2 3.8-7.4 52.6-14.9 20.5-3.1 40.7-5.4 45.9-5.9 6.8-16.5 11.7-28.5 14.3-35.7 1.6-4.2 2.9-7.9 4-11.2 4.6-13.3 7-20 14.2-20.8 5.8-.8 142.2-19.3 152.6-20.3 4.2-.4 7.4.5 9.4 2.8 3.4 3.8 2.5 10.2 1.3 15.3-1.7 7.6-31.4 92.9-40.2 99.7-5.1 3.9-52.1 12.8-79.6 17.7-34.1 6-75.1 12.6-81.9 12.6zm-88.7-37.4c1.6 2.1 16.6 9.4 41.6 18.8 22.4 8.4 42.2 14.4 47.1 14.4 5.6 0 43.5-5.9 81.2-12.6 53.7-9.5 75.5-15.1 77.8-16.8 6.9-5.2 36.3-86.7 38.7-97.3 1.3-5.9 1.2-9.8-.4-11.6-1.1-1.2-3.1-1.7-5.9-1.4-10.3.9-151 20.1-152.4 20.3-4.5.5-6.3 5.1-10.8 18-1.2 3.3-2.4 7-4.1 11.3-2.7 7.4-7.7 19.8-14.9 36.9-.3.7-.9 1.3-1.7 1.3-.2 0-23.8 2.5-47.6 6.2-43 6.7-48.1 11.3-48.8 12.4.2 0 .2.1.2.1z" fill="#0066b3"/></g><path d="m277 406.2c-.3 0-.5-.1-.9-.2-1.1-.5-1.6-1.7-1.1-2.8.3-.8 34.8-82.1 39.2-96.4 3.9-12.3-1.2-15-1.4-15.2-1.1-.5-1.5-1.7-1-2.8s1.8-1.6 2.8-1c.4.2 8.8 4.1 3.6 20.3-4.6 14.5-38 93.4-39.4 96.7-.2.9-1 1.4-1.8 1.4z" fill="#0066b3"/><path d="m269.7 387.7-31.7-10.3s28.6-4.1 38.1-5c-4 9.6-6.4 15.3-6.4 15.3z" fill="#fff200"/><path d="m397 343.2s-1.2 8.9-14.5 10.2c-16 1.5-21.8-.5-20.3-10.2 1.9-11.9 5.2-18.8 7.7-18.4 2.6.5 4.5 6.7 4.5 6.7l15-1.3s3.4-5.4 7.4-5.4c4.2 0 1.7 13.3.2 18.4z" fill="#fff200"/><path d="m268.3 395.8c-.2 0-.4 0-.6-.1l-70.9-22.2c-1.1-.3-1.7-1.6-1.4-2.7s1.6-1.7 2.7-1.4l69.1 21.6 17.5-42c.5-1.1 1.7-1.6 2.7-1.2 1.1.5 1.6 1.7 1.2 2.7l-18.2 43.8c-.5.9-1.3 1.5-2.1 1.5z" fill="#0066b3"/><g fill="#fff"><g><path d="m278.6 486c.3 3.1 11.3 3.1 11.6-.2.3-3.4-12-3.5-11.6.2z"/><path d="m278.6 473.6c.3 3.1 11.3 3.1 11.6-.2.3-3.4-12-3.4-11.6.2z"/><path d="m278.8 461.9c.3 3.1 11.3 3.1 11.6-.2.3-3.4-12-3.4-11.6.2z"/><path d="m278.6 450.2c.3 3.1 11.3 3.1 11.6-.2.3-3.4-12-3.5-11.6.2z"/></g><g><path d="m171.2 447.3c.3 3.1 10.9 3.1 11.2-.2s-11.6-3.4-11.2.2z"/><path d="m171.2 435.3c.3 3.1 10.9 3.1 11.2-.2s-11.6-3.3-11.2.2z"/><path d="m171.4 423.9c.3 3.1 10.9 3.1 11.2-.2.3-3.2-11.6-3.2-11.2.2z"/><path d="m171.2 412.6c.3 3.1 10.9 3.1 11.2-.2s-11.6-3.3-11.2.2z"/></g></g></g></g><g fill="#00b9f2"><path d="m415.7 249.2c0 4.5-3.7 8.3-8.3 8.3-4.5 0-8.3-3.7-8.3-8.3 0-4.5 3.7-8.3 8.3-8.3s8.3 3.7 8.3 8.3z"/><path d="m399.3 225.2s30.5-3.8 30.7 27.4c0 10 10.6 7.4 10.9 0s-2.1-37.2-40.2-37.2c-9.2-.1-7.4 9.8-1.4 9.8z"/><path d="m398.8 205.3s52.4-4.2 52.7 45.2c0 10.4 12.4 11.7 12.9 0s-4.9-57.4-66.5-56.9c-11.2.1-8.6 11.7.9 11.7z"/></g><g><g><path d="m189.8 327.4s3.7 4.5 23.8 29.3c9.4 11.5-4.9 23.6-18.2 14.7-15-10-36.6-28.7-36.6-28.7" fill="#0089cf"/><path d="m205.2 378c-4.1 0-8.3-1.4-11.7-3.6-15-10-36-28.3-36.9-29-1.5-1.3-1.6-3.5-.4-5s3.5-1.6 5-.4c.2.2 21.7 18.7 36.2 28.5 5.6 3.8 11.3 2.7 14-.2 2.3-2.6 2.1-6-.6-9.4l-23.8-29.3c-1.3-1.5-1-3.8.5-5 1.5-1.3 3.8-1 5 .5l23.8 29.3c4.9 6.1 5.1 13.4.4 18.6-3.1 3.6-7.3 5-11.5 5z" fill="#6dcff6"/></g></g></g></svg>