<svg width="95" height="31" viewBox="0 0 95 31" fill="none" xmlns="http://www.w3.org/2000/svg">
<path d="M20.0568 13V4.27273H23.108C23.7159 4.27273 24.2173 4.37784 24.6122 4.58807C25.0071 4.79545 25.3011 5.07528 25.4943 5.42756C25.6875 5.77699 25.7841 6.16477 25.7841 6.59091C25.7841 6.96591 25.7173 7.27557 25.5838 7.51989C25.4531 7.7642 25.2798 7.95739 25.0639 8.09943C24.8509 8.24148 24.6193 8.34659 24.3693 8.41477V8.5C24.6364 8.51705 24.9048 8.6108 25.1747 8.78125C25.4446 8.9517 25.6705 9.19602 25.8523 9.5142C26.0341 9.83239 26.125 10.2216 26.125 10.6818C26.125 11.1193 26.0256 11.5128 25.8267 11.8622C25.6278 12.2116 25.3139 12.4886 24.8849 12.6932C24.456 12.8977 23.8977 13 23.2102 13H20.0568ZM21.1136 12.0625H23.2102C23.9006 12.0625 24.3906 11.929 24.6804 11.6619C24.973 11.392 25.1193 11.0653 25.1193 10.6818C25.1193 10.3864 25.044 10.1136 24.8935 9.86364C24.7429 9.6108 24.5284 9.40909 24.25 9.25852C23.9716 9.10511 23.642 9.02841 23.2614 9.02841H21.1136V12.0625ZM21.1136 8.10795H23.0739C23.392 8.10795 23.679 8.04545 23.9347 7.92045C24.1932 7.79545 24.3977 7.61932 24.5483 7.39205C24.7017 7.16477 24.7784 6.89773 24.7784 6.59091C24.7784 6.20739 24.6449 5.8821 24.3778 5.61506C24.1108 5.34517 23.6875 5.21023 23.108 5.21023H21.1136V8.10795ZM30.3842 13.1364C29.7933 13.1364 29.2749 12.9957 28.8288 12.7145C28.3857 12.4332 28.0391 12.0398 27.7891 11.5341C27.5419 11.0284 27.4183 10.4375 27.4183 9.76136C27.4183 9.07955 27.5419 8.48437 27.7891 7.97585C28.0391 7.46733 28.3857 7.07244 28.8288 6.79119C29.2749 6.50994 29.7933 6.36932 30.3842 6.36932C30.9751 6.36932 31.4922 6.50994 31.9354 6.79119C32.3814 7.07244 32.728 7.46733 32.9751 7.97585C33.2251 8.48437 33.3501 9.07955 33.3501 9.76136C33.3501 10.4375 33.2251 11.0284 32.9751 11.5341C32.728 12.0398 32.3814 12.4332 31.9354 12.7145C31.4922 12.9957 30.9751 13.1364 30.3842 13.1364ZM30.3842 12.233C30.8331 12.233 31.2024 12.1179 31.4922 11.8878C31.782 11.6577 31.9964 11.3551 32.1357 10.9801C32.2749 10.6051 32.3445 10.1989 32.3445 9.76136C32.3445 9.32386 32.2749 8.91619 32.1357 8.53835C31.9964 8.16051 31.782 7.85511 31.4922 7.62216C31.2024 7.3892 30.8331 7.27273 30.3842 7.27273C29.9354 7.27273 29.5661 7.3892 29.2763 7.62216C28.9865 7.85511 28.772 8.16051 28.6328 8.53835C28.4936 8.91619 28.424 9.32386 28.424 9.76136C28.424 10.1989 28.4936 10.6051 28.6328 10.9801C28.772 11.3551 28.9865 11.6577 29.2763 11.8878C29.5661 12.1179 29.9354 12.233 30.3842 12.233ZM37.5444 13.1364C36.9535 13.1364 36.435 12.9957 35.989 12.7145C35.5458 12.4332 35.1992 12.0398 34.9492 11.5341C34.7021 11.0284 34.5785 10.4375 34.5785 9.76136C34.5785 9.07955 34.7021 8.48437 34.9492 7.97585C35.1992 7.46733 35.5458 7.07244 35.989 6.79119C36.435 6.50994 36.9535 6.36932 37.5444 6.36932C38.1353 6.36932 38.6523 6.50994 39.0955 6.79119C39.5415 7.07244 39.8881 7.46733 40.1353 7.97585C40.3853 8.48437 40.5103 9.07955 40.5103 9.76136C40.5103 10.4375 40.3853 11.0284 40.1353 11.5341C39.8881 12.0398 39.5415 12.4332 39.0955 12.7145C38.6523 12.9957 38.1353 13.1364 37.5444 13.1364ZM37.5444 12.233C37.9933 12.233 38.3626 12.1179 38.6523 11.8878C38.9421 11.6577 39.1566 11.3551 39.2958 10.9801C39.435 10.6051 39.5046 10.1989 39.5046 9.76136C39.5046 9.32386 39.435 8.91619 39.2958 8.53835C39.1566 8.16051 38.9421 7.85511 38.6523 7.62216C38.3626 7.3892 37.9933 7.27273 37.5444 7.27273C37.0955 7.27273 36.7262 7.3892 36.4364 7.62216C36.1467 7.85511 35.9322 8.16051 35.793 8.53835C35.6538 8.91619 35.5842 9.32386 35.5842 9.76136C35.5842 10.1989 35.6538 10.6051 35.793 10.9801C35.9322 11.3551 36.1467 11.6577 36.4364 11.8878C36.7262 12.1179 37.0955 12.233 37.5444 12.233ZM42.983 10.6136L42.9659 9.36932H43.1705L46.0341 6.45455H47.2784L44.2273 9.53977H44.142L42.983 10.6136ZM42.0455 13V4.27273H43.0511V13H42.0455ZM46.2045 13L43.6477 9.76136L44.3636 9.0625L47.483 13H46.2045ZM53.2092 7.92045L52.3058 8.17614C52.2489 8.02557 52.1651 7.87926 52.0543 7.73722C51.9464 7.59233 51.7987 7.47301 51.6112 7.37926C51.4237 7.28551 51.1836 7.23864 50.891 7.23864C50.4904 7.23864 50.1566 7.33097 49.8896 7.51562C49.6254 7.69744 49.4933 7.92898 49.4933 8.21023C49.4933 8.46023 49.5842 8.65767 49.766 8.80256C49.9478 8.94744 50.2319 9.06818 50.6183 9.16477L51.5898 9.40341C52.1751 9.54545 52.6112 9.76278 52.8981 10.0554C53.185 10.3452 53.3285 10.7187 53.3285 11.1761C53.3285 11.5511 53.2205 11.8864 53.0046 12.1818C52.7915 12.4773 52.4933 12.7102 52.1097 12.8807C51.7262 13.0511 51.2802 13.1364 50.7717 13.1364C50.104 13.1364 49.5515 12.9915 49.114 12.7017C48.6765 12.4119 48.3995 11.9886 48.283 11.4318L49.2376 11.1932C49.3285 11.5455 49.5004 11.8097 49.7532 11.9858C50.0089 12.1619 50.3427 12.25 50.7546 12.25C51.2234 12.25 51.5955 12.1506 51.8711 11.9517C52.1495 11.75 52.2887 11.5085 52.2887 11.2273C52.2887 11 52.2092 10.8097 52.0501 10.6562C51.891 10.5 51.6467 10.3835 51.3171 10.3068L50.2262 10.0511C49.6268 9.90909 49.1864 9.68892 48.9052 9.39062C48.6268 9.08949 48.4876 8.71307 48.4876 8.26136C48.4876 7.89205 48.5913 7.56534 48.7987 7.28125C49.0089 6.99716 49.2944 6.77415 49.6552 6.61222C50.0188 6.45028 50.4308 6.36932 50.891 6.36932C51.5387 6.36932 52.0472 6.51136 52.4165 6.79545C52.7887 7.07955 53.0529 7.45455 53.2092 7.92045Z" fill="#FC4C4D
"/>
<path d="M77.392 13.1364C76.8466 13.1364 76.3651 12.9986 75.9474 12.723C75.5298 12.4446 75.2031 12.0526 74.9673 11.5469C74.7315 11.0384 74.6136 10.4375 74.6136 9.74432C74.6136 9.05682 74.7315 8.46023 74.9673 7.95455C75.2031 7.44886 75.5313 7.05824 75.9517 6.78267C76.3722 6.5071 76.858 6.36932 77.4091 6.36932C77.8352 6.36932 78.1719 6.44034 78.419 6.58239C78.669 6.72159 78.8594 6.88068 78.9901 7.05966C79.1236 7.2358 79.2273 7.38068 79.3011 7.49432H79.3864V4.27273H80.392V13H79.4205V11.9943H79.3011C79.2273 12.1136 79.1222 12.2642 78.9858 12.446C78.8494 12.625 78.6548 12.7855 78.402 12.9276C78.1491 13.0668 77.8125 13.1364 77.392 13.1364ZM77.5284 12.233C77.9318 12.233 78.2727 12.1278 78.5511 11.9176C78.8295 11.7045 79.0412 11.4105 79.1861 11.0355C79.331 10.6577 79.4034 10.2216 79.4034 9.72727C79.4034 9.23864 79.3324 8.81108 79.1903 8.4446C79.0483 8.07528 78.8381 7.78835 78.5597 7.58381C78.2813 7.37642 77.9375 7.27273 77.5284 7.27273C77.1023 7.27273 76.7472 7.3821 76.4631 7.60085C76.1818 7.81676 75.9702 8.1108 75.8281 8.48295C75.6889 8.85227 75.6193 9.26705 75.6193 9.72727C75.6193 10.1932 75.6903 10.6165 75.8324 10.9972C75.9773 11.375 76.1903 11.6761 76.4716 11.9006C76.7557 12.1222 77.108 12.233 77.5284 12.233ZM85.1179 13.1364C84.4872 13.1364 83.9432 12.9972 83.4858 12.7188C83.0312 12.4375 82.6804 12.0455 82.4332 11.5426C82.1889 11.0369 82.0668 10.4489 82.0668 9.77841C82.0668 9.10795 82.1889 8.51705 82.4332 8.00568C82.6804 7.49148 83.0241 7.09091 83.4645 6.80398C83.9077 6.5142 84.4247 6.36932 85.0156 6.36932C85.3565 6.36932 85.6932 6.42614 86.0256 6.53977C86.358 6.65341 86.6605 6.83807 86.9332 7.09375C87.206 7.34659 87.4233 7.68182 87.5852 8.09943C87.7472 8.51705 87.8281 9.03125 87.8281 9.64205V10.0682H82.7827V9.19886H86.8054C86.8054 8.82955 86.7315 8.5 86.5838 8.21023C86.4389 7.92045 86.2315 7.69176 85.9616 7.52415C85.6946 7.35653 85.3793 7.27273 85.0156 7.27273C84.6151 7.27273 84.2685 7.37216 83.9759 7.57102C83.6861 7.76705 83.4631 8.02273 83.3068 8.33807C83.1506 8.65341 83.0724 8.99148 83.0724 9.35227V9.93182C83.0724 10.4261 83.1577 10.8452 83.3281 11.1889C83.5014 11.5298 83.7415 11.7898 84.0483 11.9688C84.3551 12.1449 84.7116 12.233 85.1179 12.233C85.3821 12.233 85.6207 12.196 85.8338 12.1222C86.0497 12.0455 86.2358 11.9318 86.392 11.7812C86.5483 11.6278 86.669 11.4375 86.7543 11.2102L87.7259 11.483C87.6236 11.8125 87.4517 12.1023 87.2102 12.3523C86.9688 12.5994 86.6705 12.7926 86.3153 12.9318C85.9602 13.0682 85.5611 13.1364 85.1179 13.1364ZM94.511 6.45455L92.0906 13H91.0678L88.6474 6.45455H89.7383L91.5451 11.6705H91.6133L93.4201 6.45455H94.511Z" fill="#FC4C4D"/>
<path d="M16.7571 14.9749H13.9478L14.9424 14.6639C15.1073 14.6126 15.2423 14.5001 15.3224 14.3472C15.4026 14.1944 15.4183 14.0194 15.3668 13.8546L11.6602 1.99306C11.5756 1.72168 11.3282 1.53937 11.0443 1.53937C10.9789 1.53937 10.9139 1.54936 10.8514 1.56896L8.57282 2.28088C8.55097 2.28768 8.5298 2.29566 8.50923 2.30454V2.21073C8.50923 1.85467 8.21967 1.56497 7.86378 1.56497H5.46158C5.3092 1.56497 5.16925 1.61837 5.05875 1.70701C4.94804 1.61837 4.80781 1.56497 4.65515 1.56497H2.25007C1.8938 1.56497 1.6039 1.85467 1.6039 2.21073V14.9749H0.242857C0.108731 14.9749 0 15.0836 0 15.2177C0 15.3519 0.108731 15.4606 0.242857 15.4606H16.7571C16.8913 15.4606 17 15.3519 17 15.2177C17 15.0836 16.8913 14.9749 16.7571 14.9749ZM14.8922 14.1217C14.8724 14.1596 14.8389 14.1875 14.7977 14.2003L12.5194 14.9126C12.5038 14.9175 12.4879 14.9199 12.4719 14.9199C12.4024 14.9199 12.3394 14.8735 12.3186 14.8071L9.58613 6.06203L12.1705 5.2548L14.9032 13.9995C14.916 14.0404 14.9121 14.0838 14.8922 14.1217ZM12.0257 4.79123L9.44128 5.59845L9.14576 4.65269L11.7301 3.84533L12.0257 4.79123ZM8.71757 2.74456L10.9965 2.03254C11.0122 2.02761 11.0283 2.02512 11.0443 2.02512C11.1144 2.02512 11.1755 2.07029 11.1965 2.13777L11.5853 3.38175L9.00091 4.18911L8.61251 2.94603C8.58618 2.8612 8.63329 2.77086 8.71757 2.74456ZM11.8632 14.9749H8.50919V4.24407L11.8632 14.9749ZM5.30181 7.20262H8.02348V7.87888H5.30181V7.20262ZM8.02351 6.71691H5.30185V4.34H8.02351V6.71691ZM4.8161 4.98489H2.08961V4.34H4.8161V4.98489ZM2.08961 5.4706H4.8161V6.11587H2.08961V5.4706ZM5.30181 8.36459H8.02348V14.9749H5.30181V8.36459ZM5.46158 2.05069H7.86378C7.95184 2.05069 8.02351 2.12247 8.02351 2.21073V3.85425H5.30185V2.21076C5.30181 2.1225 5.37349 2.05069 5.46158 2.05069ZM2.25007 2.05069H4.65512C4.7439 2.05069 4.8161 2.12247 4.8161 2.21073V3.85425H2.08961V2.21076C2.08961 2.1225 2.16164 2.05069 2.25007 2.05069ZM2.08961 6.60159H4.8161V14.9749H2.08961V6.60159Z" fill="#FC4C4D"/>
<path fill-rule="evenodd" clip-rule="evenodd" d="M58.375 2.65625C58.0643 2.65625 57.8125 2.8941 57.8125 3.1875V13.8125C57.8125 14.1059 58.0643 14.3437 58.375 14.3437H69.625C69.9357 14.3437 70.1875 14.1059 70.1875 13.8125V3.1875C70.1875 2.8941 69.9357 2.65625 69.625 2.65625H58.375ZM56.6875 3.1875C56.6875 2.3073 57.443 1.59375 58.375 1.59375H69.625C70.5569 1.59375 71.3125 2.3073 71.3125 3.1875V13.8125C71.3125 14.6927 70.5569 15.4062 69.625 15.4062H58.375C57.443 15.4062 56.6875 14.6927 56.6875 13.8125V3.1875Z" fill="#FC4C4D"/>
<path fill-rule="evenodd" clip-rule="evenodd" d="M65.2837 4.45121C65.5187 4.52041 65.6787 4.72589 65.6787 4.95839V9.74668H66.25C66.5607 9.74668 66.8125 9.98454 66.8125 10.2779C66.8125 10.5713 66.5607 10.8092 66.25 10.8092H65.6787V12.0417C65.6787 12.3351 65.427 12.573 65.1162 12.573C64.8056 12.573 64.5537 12.3351 64.5537 12.0417V10.8092H61.75C61.4393 10.8092 61.1875 10.5713 61.1875 10.2779V9.56138C61.1875 9.4535 61.2223 9.34824 61.2872 9.25949L64.6534 4.65647C64.7933 4.46517 65.0487 4.38201 65.2837 4.45121ZM64.5537 9.74668V6.66233L62.3125 9.72699V9.74668H64.5537Z" fill="#FC4C4D"/>
</svg>
