<svg width="113" height="113" viewBox="0 0 113 113" fill="none" xmlns="http://www.w3.org/2000/svg">
<g clip-path="url(#clip0_279_89)">
<path d="M112.593 88.6882L106.03 69.5878C109.194 63.1208 110.866 55.9285 110.877 48.6918C110.896 36.1089 106.028 24.2114 97.1685 15.1913C88.3072 6.16933 76.4992 1.09072 63.9191 0.891428C50.8744 0.685291 38.613 5.64715 29.3948 14.8651C20.5062 23.7534 15.5762 35.4713 15.4201 47.9931C6.65951 54.589 1.48864 64.8727 1.50564 75.8569C1.5138 80.9971 2.67073 86.1066 4.86298 90.727L0.342309 103.883C-0.434788 106.144 0.132861 108.6 1.82389 110.291C3.01393 111.481 4.58291 112.115 6.19647 112.115C6.87535 112.115 7.56218 112.003 8.23202 111.772L21.3879 107.252C26.0084 109.444 31.1179 110.601 36.2581 110.609C36.2766 110.609 36.2943 110.609 36.3128 110.609C47.4605 110.609 57.8226 105.305 64.3945 96.3292C71.2334 96.1491 77.9999 94.4936 84.1172 91.5011L103.218 98.0643C104.014 98.3378 104.83 98.4711 105.636 98.4711C107.554 98.4711 109.418 97.718 110.833 96.3033C112.842 94.2938 113.517 91.3759 112.593 88.6882ZM36.3124 103.883C36.298 103.883 36.2828 103.883 36.2684 103.883C31.7188 103.876 27.2008 102.755 23.2037 100.64C22.3818 100.205 21.4169 100.13 20.538 100.432L7.04795 105.067L11.6834 91.5774C11.9853 90.6983 11.9103 89.7334 11.4755 88.9118C9.3607 84.9144 8.23908 80.3966 8.23202 75.8468C8.22076 68.5285 11.0676 61.592 16.046 56.3979C17.6722 66.311 22.3968 75.446 29.7202 82.6391C36.9895 89.7791 46.127 94.3252 55.9863 95.8114C50.7804 100.943 43.7629 103.883 36.3124 103.883ZM106.076 91.5472C105.885 91.7385 105.658 91.7906 105.403 91.7028L84.9552 84.6765C84.6001 84.5544 84.2306 84.4939 83.8625 84.4939C83.3198 84.4939 82.7791 84.6253 82.2898 84.8844C76.4515 87.9729 69.8542 89.6109 63.2106 89.6211C63.1887 89.6211 63.1689 89.6211 63.147 89.6211C40.8862 89.6211 22.4987 71.538 22.1461 49.2824C21.9684 38.074 26.2319 27.5401 34.151 19.621C42.0701 11.7019 52.6058 7.43992 63.8127 7.61649C86.0896 7.96983 104.185 26.3913 104.151 48.6812C104.14 55.3249 102.502 61.9224 99.4141 67.7602C98.9794 68.5819 98.9043 69.5468 99.2062 70.4258L106.232 90.8736C106.32 91.1296 106.267 91.3563 106.076 91.5472Z" fill="#FC4C4D"/>
<path d="M83.1814 30.7908H43.1105C41.253 30.7908 39.7474 32.2967 39.7474 34.1539C39.7474 36.0113 41.2532 37.517 43.1105 37.517H83.1814C85.0388 37.517 86.5445 36.0111 86.5445 34.1539C86.5445 32.2967 85.0388 30.7908 83.1814 30.7908Z" fill="#FC4C4D"/>
<path d="M83.1814 44.6225H43.1105C41.253 44.6225 39.7474 46.1284 39.7474 47.9856C39.7474 49.8428 41.2532 51.3487 43.1105 51.3487H83.1814C85.0388 51.3487 86.5445 49.8428 86.5445 47.9856C86.5445 46.1284 85.0388 44.6225 83.1814 44.6225Z" fill="#FC4C4D"/>
<path d="M67.7569 58.4538H43.1102C41.2528 58.4538 39.7472 59.9596 39.7472 61.8168C39.7472 63.6743 41.253 65.1799 43.1102 65.1799H67.7566C69.6141 65.1799 71.1197 63.6741 71.1197 61.8168C71.1197 59.9596 69.6143 58.4538 67.7569 58.4538Z" fill="#FC4C4D"/>
</g>
<defs>
<clipPath id="clip0_279_89">
<rect width="113" height="113" fill="white"/>
</clipPath>
</defs>
</svg>
